<svg width="14" height="16" viewBox="0 0 14 16" fill="none" xmlns="http://www.w3.org/2000/svg">
<path d="M10.9727 13.3583C9.91129 14.4098 8.50206 14.9869 6.99993 14.9869C5.4978 14.9869 4.08857 14.4098 3.0272 13.3583C1.96978 12.3088 1.38672 10.9173 1.38672 9.43695C1.38672 8.57718 1.58041 7.75299 1.96188 6.98612C2.33345 6.23703 2.88687 5.567 3.55887 5.05114C3.98745 4.72342 4.37617 4.34664 4.71709 3.9285C5.21121 3.32567 5.5986 2.65366 5.86741 1.93225C5.97767 1.63466 6.05779 1.32677 6.10656 1.01318C6.58289 1.45196 6.98214 1.98166 7.31617 2.60228C7.97631 3.83955 8.28069 4.94046 8.2214 5.87731C8.20723 6.09796 8.24327 6.31894 8.3268 6.52366C8.41033 6.72838 8.53918 6.91149 8.70366 7.05925C8.8462 7.18801 9.01291 7.28716 9.19409 7.35095C9.37528 7.41474 9.56733 7.44189 9.7591 7.43082C10.1485 7.41106 10.5062 7.23911 10.7671 6.94856C11.03 6.65407 11.2573 6.35364 11.447 6.04729C11.7237 6.40108 11.955 6.78649 12.1388 7.20155C12.453 7.90913 12.6131 8.66217 12.6131 9.43695C12.6131 10.9173 12.0301 12.3108 10.9727 13.3583Z" stroke="#C8340F" stroke-linejoin="round"/>
<path d="M7.84726 11.9546C7.42128 12.3766 6.8557 12.6083 6.25283 12.6083C5.64996 12.6083 5.08437 12.3766 4.6584 11.9546C4.23401 11.5334 4 10.975 4 10.3808C4 10.0358 4.07774 9.70498 4.23084 9.3972C4.37997 9.09656 4.60208 8.82765 4.87178 8.62061C5.04379 8.48908 5.1998 8.33786 5.33662 8.17004C5.53494 7.9281 5.69041 7.6584 5.7983 7.36886C5.84255 7.24943 5.8747 7.12585 5.89428 7C6.08545 7.1761 6.24569 7.38869 6.37975 7.63777C6.64469 8.13435 6.76685 8.57619 6.74306 8.95219C6.73737 9.04074 6.75183 9.12943 6.78536 9.21159C6.81888 9.29376 6.87059 9.36725 6.93661 9.42655C6.99382 9.47823 7.06072 9.51802 7.13344 9.54362C7.20616 9.56922 7.28324 9.58012 7.3602 9.57568C7.51647 9.56775 7.66005 9.49873 7.76476 9.38213C7.87026 9.26393 7.96149 9.14336 8.03764 9.02041C8.14869 9.1624 8.2415 9.31708 8.31528 9.48366C8.4414 9.76765 8.50566 10.0699 8.50566 10.3808C8.50566 10.975 8.27165 11.5342 7.84726 11.9546Z" stroke="#C8340F" stroke-linejoin="round"/>
</svg>
